<svg width="179" height="52" viewBox="0 0 179 52" fill="none" xmlns="http://www.w3.org/2000/svg">
<path d="M75.896 17.32V29.344C75.896 30.832 75.44 32.008 74.528 32.872C73.632 33.736 72.448 34.168 70.976 34.168C69.504 34.168 68.312 33.736 67.4 32.872C66.504 32.008 66.056 30.832 66.056 29.344H68.816C68.832 30.08 69.016 30.664 69.368 31.096C69.736 31.528 70.272 31.744 70.976 31.744C71.68 31.744 72.216 31.528 72.584 31.096C72.952 30.648 73.136 30.064 73.136 29.344V17.32H75.896ZM92.3229 20.776V34H89.5869V32.44C89.1549 32.984 88.5869 33.416 87.8829 33.736C87.1949 34.04 86.4589 34.192 85.6749 34.192C84.6349 34.192 83.6989 33.976 82.8669 33.544C82.0509 33.112 81.4029 32.472 80.9229 31.624C80.4589 30.776 80.2269 29.752 80.2269 28.552V20.776H82.9389V28.144C82.9389 29.328 83.2349 30.24 83.8269 30.88C84.4189 31.504 85.2269 31.816 86.2509 31.816C87.2749 31.816 88.0829 31.504 88.6749 30.88C89.2829 30.24 89.5869 29.328 89.5869 28.144V20.776H92.3229ZM100.733 34.216C99.6928 34.216 98.7568 34.032 97.9248 33.664C97.1088 33.28 96.4608 32.768 95.9808 32.128C95.5008 31.472 95.2448 30.744 95.2128 29.944H98.0448C98.0928 30.504 98.3568 30.976 98.8368 31.36C99.3328 31.728 99.9488 31.912 100.685 31.912C101.453 31.912 102.045 31.768 102.461 31.48C102.893 31.176 103.109 30.792 103.109 30.328C103.109 29.832 102.869 29.464 102.389 29.224C101.925 28.984 101.181 28.72 100.157 28.432C99.1648 28.16 98.3568 27.896 97.7328 27.64C97.1088 27.384 96.5648 26.992 96.1008 26.464C95.6528 25.936 95.4288 25.24 95.4288 24.376C95.4288 23.672 95.6368 23.032 96.0528 22.456C96.4688 21.864 97.0608 21.4 97.8288 21.064C98.6128 20.728 99.5088 20.56 100.517 20.56C102.021 20.56 103.229 20.944 104.141 21.712C105.069 22.464 105.565 23.496 105.629 24.808H102.893C102.845 24.216 102.605 23.744 102.173 23.392C101.741 23.04 101.157 22.864 100.421 22.864C99.7008 22.864 99.1488 23 98.7648 23.272C98.3808 23.544 98.1888 23.904 98.1888 24.352C98.1888 24.704 98.3168 25 98.5728 25.24C98.8288 25.48 99.1408 25.672 99.5088 25.816C99.8768 25.944 100.421 26.112 101.141 26.32C102.101 26.576 102.885 26.84 103.493 27.112C104.117 27.368 104.653 27.752 105.101 28.264C105.549 28.776 105.781 29.456 105.797 30.304C105.797 31.056 105.589 31.728 105.173 32.32C104.757 32.912 104.165 33.376 103.397 33.712C102.645 34.048 101.757 34.216 100.733 34.216ZM111.945 23.008V30.328C111.945 30.824 112.057 31.184 112.281 31.408C112.521 31.616 112.921 31.72 113.481 31.72H115.161V34H113.001C111.769 34 110.825 33.712 110.169 33.136C109.513 32.56 109.185 31.624 109.185 30.328V23.008H107.625V20.776H109.185V17.488H111.945V20.776H115.161V23.008H111.945ZM123.179 34.168C122.059 34.168 121.051 33.976 120.155 33.592C119.259 33.192 118.555 32.632 118.043 31.912C117.531 31.192 117.275 30.352 117.275 29.392H120.203C120.267 30.112 120.547 30.704 121.043 31.168C121.555 31.632 122.267 31.864 123.179 31.864C124.123 31.864 124.859 31.64 125.387 31.192C125.915 30.728 126.179 30.136 126.179 29.416C126.179 28.856 126.011 28.4 125.675 28.048C125.355 27.696 124.947 27.424 124.451 27.232C123.971 27.04 123.299 26.832 122.435 26.608C121.347 26.32 120.459 26.032 119.771 25.744C119.099 25.44 118.523 24.976 118.043 24.352C117.563 23.728 117.323 22.896 117.323 21.856C117.323 20.896 117.563 20.056 118.043 19.336C118.523 18.616 119.195 18.064 120.059 17.68C120.923 17.296 121.923 17.104 123.059 17.104C124.675 17.104 125.995 17.512 127.019 18.328C128.059 19.128 128.635 20.232 128.747 21.64H125.723C125.675 21.032 125.387 20.512 124.859 20.08C124.331 19.648 123.635 19.432 122.771 19.432C121.987 19.432 121.347 19.632 120.851 20.032C120.355 20.432 120.107 21.008 120.107 21.76C120.107 22.272 120.259 22.696 120.563 23.032C120.883 23.352 121.283 23.608 121.763 23.8C122.243 23.992 122.899 24.2 123.731 24.424C124.835 24.728 125.731 25.032 126.419 25.336C127.123 25.64 127.715 26.112 128.195 26.752C128.691 27.376 128.939 28.216 128.939 29.272C128.939 30.12 128.707 30.92 128.243 31.672C127.795 32.424 127.131 33.032 126.251 33.496C125.387 33.944 124.363 34.168 123.179 34.168ZM135.359 23.008V30.328C135.359 30.824 135.471 31.184 135.695 31.408C135.935 31.616 136.335 31.72 136.895 31.72H138.575V34H136.415C135.183 34 134.239 33.712 133.583 33.136C132.927 32.56 132.599 31.624 132.599 30.328V23.008H131.039V20.776H132.599V17.488H135.359V20.776H138.575V23.008H135.359ZM146.833 34.216C145.585 34.216 144.457 33.936 143.449 33.376C142.441 32.8 141.649 32 141.073 30.976C140.497 29.936 140.209 28.736 140.209 27.376C140.209 26.032 140.505 24.84 141.097 23.8C141.689 22.76 142.497 21.96 143.521 21.4C144.545 20.84 145.689 20.56 146.953 20.56C148.217 20.56 149.361 20.84 150.385 21.4C151.409 21.96 152.217 22.76 152.809 23.8C153.401 24.84 153.697 26.032 153.697 27.376C153.697 28.72 153.393 29.912 152.785 30.952C152.177 31.992 151.345 32.8 150.289 33.376C149.249 33.936 148.097 34.216 146.833 34.216ZM146.833 31.84C147.537 31.84 148.193 31.672 148.801 31.336C149.425 31 149.929 30.496 150.313 29.824C150.697 29.152 150.889 28.336 150.889 27.376C150.889 26.416 150.705 25.608 150.337 24.952C149.969 24.28 149.481 23.776 148.873 23.44C148.265 23.104 147.609 22.936 146.905 22.936C146.201 22.936 145.545 23.104 144.937 23.44C144.345 23.776 143.873 24.28 143.521 24.952C143.169 25.608 142.993 26.416 142.993 27.376C142.993 28.8 143.353 29.904 144.073 30.688C144.809 31.456 145.729 31.84 146.833 31.84ZM159.138 22.696C159.538 22.024 160.066 21.504 160.722 21.136C161.394 20.752 162.186 20.56 163.098 20.56V23.392H162.402C161.33 23.392 160.514 23.664 159.954 24.208C159.41 24.752 159.138 25.696 159.138 27.04V34H156.402V20.776H159.138V22.696ZM177.733 27.064C177.733 27.56 177.701 28.008 177.637 28.408H167.533C167.613 29.464 168.005 30.312 168.709 30.952C169.413 31.592 170.277 31.912 171.301 31.912C172.773 31.912 173.813 31.296 174.421 30.064H177.372C176.973 31.28 176.245 32.28 175.189 33.064C174.149 33.832 172.853 34.216 171.301 34.216C170.037 34.216 168.901 33.936 167.893 33.376C166.901 32.8 166.117 32 165.541 30.976C164.981 29.936 164.701 28.736 164.701 27.376C164.701 26.016 164.973 24.824 165.517 23.8C166.077 22.76 166.853 21.96 167.845 21.4C168.853 20.84 170.005 20.56 171.301 20.56C172.549 20.56 173.661 20.832 174.637 21.376C175.613 21.92 176.373 22.688 176.917 23.68C177.461 24.656 177.733 25.784 177.733 27.064ZM174.877 26.2C174.861 25.192 174.501 24.384 173.797 23.776C173.093 23.168 172.221 22.864 171.181 22.864C170.237 22.864 169.429 23.168 168.757 23.776C168.085 24.368 167.685 25.176 167.557 26.2H174.877Z" fill="#FA7275"/>
<rect opacity="0.2" width="48" height="48" rx="24" fill="#FA7275"/>
<rect x="21" y="20" width="32" height="32" rx="16" fill="#FA7275"/>
</svg>
