<svg width="280" height="82" viewBox="0 0 280 82" fill="none" xmlns="http://www.w3.org/2000/svg">
<rect width="280" height="82" fill="#1D2129"/>
<rect x="-75" y="-114" width="1440" height="1024" rx="34" fill="white"/>
<rect x="-75" y="-114" width="580" height="1024" fill="#FA7275"/>
<path d="M118.322 27.4688V46.2143C118.322 48.5341 117.611 50.3675 116.19 51.7145C114.793 53.0614 112.947 53.7349 110.652 53.7349C108.357 53.7349 106.499 53.0614 105.077 51.7145C103.68 50.3675 102.982 48.5341 102.982 46.2143H107.285C107.31 47.3617 107.596 48.2722 108.145 48.9457C108.719 49.6192 109.555 49.9559 110.652 49.9559C111.75 49.9559 112.585 49.6192 113.159 48.9457C113.733 48.2472 114.02 47.3368 114.02 46.2143V27.4688H118.322ZM143.932 32.8567V53.473H139.667V51.041C138.993 51.8891 138.108 52.5626 137.01 53.0614C135.937 53.5354 134.79 53.7724 133.568 53.7724C131.946 53.7724 130.487 53.4356 129.19 52.7621C127.918 52.0886 126.908 51.0909 126.159 49.7688C125.436 48.4468 125.074 46.8504 125.074 44.9796V32.8567H129.302V44.3435C129.302 46.1893 129.764 47.6112 130.687 48.6089C131.61 49.5817 132.869 50.0682 134.466 50.0682C136.062 50.0682 137.322 49.5817 138.245 48.6089C139.193 47.6112 139.667 46.1893 139.667 44.3435V32.8567H143.932ZM157.043 53.8098C155.422 53.8098 153.963 53.5229 152.665 52.9492C151.393 52.3505 150.383 51.5523 149.635 50.5546C148.886 49.5319 148.487 48.3969 148.437 47.1497H152.853C152.927 48.0227 153.339 48.7586 154.087 49.3572C154.861 49.931 155.821 50.2178 156.968 50.2178C158.166 50.2178 159.089 49.9933 159.737 49.5443C160.411 49.0704 160.747 48.4717 160.747 47.7484C160.747 46.9751 160.373 46.4014 159.625 46.0272C158.901 45.653 157.742 45.2415 156.145 44.7925C154.599 44.3684 153.339 43.9568 152.366 43.5577C151.393 43.1586 150.545 42.5475 149.822 41.7244C149.123 40.9012 148.774 39.8161 148.774 38.4691C148.774 37.3716 149.098 36.3738 149.747 35.4759C150.396 34.5529 151.318 33.8295 152.516 33.3057C153.738 32.7819 155.135 32.52 156.706 32.52C159.051 32.52 160.934 33.1186 162.356 34.316C163.803 35.4883 164.576 37.0972 164.676 39.1426H160.411C160.336 38.2197 159.962 37.4839 159.288 36.9351C158.615 36.3863 157.704 36.1119 156.557 36.1119C155.434 36.1119 154.574 36.324 153.975 36.748C153.376 37.1721 153.077 37.7333 153.077 38.4317C153.077 38.9805 153.277 39.442 153.676 39.8161C154.075 40.1903 154.561 40.4896 155.135 40.7141C155.709 40.9137 156.557 41.1756 157.679 41.4999C159.176 41.899 160.398 42.3105 161.346 42.7346C162.319 43.1337 163.154 43.7324 163.853 44.5306C164.551 45.3288 164.913 46.3889 164.938 47.7109C164.938 48.8833 164.614 49.931 163.965 50.8539C163.317 51.7768 162.394 52.5002 161.196 53.024C160.024 53.5479 158.64 53.8098 157.043 53.8098ZM174.523 36.3364V47.7484C174.523 48.5216 174.698 49.0829 175.047 49.4321C175.421 49.7564 176.045 49.9185 176.918 49.9185H179.537V53.473H176.17C174.249 53.473 172.777 53.024 171.754 52.126C170.732 51.2281 170.22 49.7688 170.22 47.7484V36.3364H167.788V32.8567H170.22V27.7307H174.523V32.8567H179.537V36.3364H174.523ZM192.037 53.7349C190.29 53.7349 188.719 53.4356 187.322 52.8369C185.925 52.2133 184.828 51.3403 184.03 50.2178C183.231 49.0953 182.832 47.7858 182.832 46.2891H187.397C187.497 47.4116 187.933 48.3345 188.707 49.0579C189.505 49.7813 190.615 50.143 192.037 50.143C193.508 50.143 194.656 49.7938 195.479 49.0953C196.302 48.372 196.714 47.449 196.714 46.3265C196.714 45.4535 196.452 44.7426 195.928 44.1938C195.429 43.645 194.793 43.221 194.02 42.9217C193.271 42.6223 192.224 42.2981 190.877 41.9488C189.18 41.4999 187.796 41.0509 186.723 40.6019C185.676 40.1279 184.778 39.4046 184.03 38.4317C183.281 37.4589 182.907 36.1618 182.907 34.5404C182.907 33.0438 183.281 31.7342 184.03 30.6118C184.778 29.4893 185.826 28.6287 187.172 28.03C188.519 27.4314 190.078 27.1321 191.85 27.1321C194.369 27.1321 196.427 27.7681 198.023 29.0403C199.645 30.2875 200.543 32.0086 200.717 34.2037H196.003C195.928 33.2558 195.479 32.4451 194.656 31.7717C193.833 31.0982 192.747 30.7614 191.401 30.7614C190.178 30.7614 189.18 31.0732 188.407 31.6968C187.634 32.3204 187.247 33.2184 187.247 34.3908C187.247 35.189 187.484 35.85 187.958 36.3738C188.457 36.8727 189.081 37.2718 189.829 37.5712C190.577 37.8705 191.6 38.1948 192.897 38.544C194.618 39.0179 196.015 39.4919 197.088 39.9658C198.185 40.4397 199.108 41.1756 199.857 42.1733C200.63 43.1462 201.016 44.4557 201.016 46.102C201.016 47.4241 200.655 48.6713 199.931 49.8437C199.233 51.016 198.198 51.9639 196.826 52.6873C195.479 53.3857 193.882 53.7349 192.037 53.7349ZM211.026 36.3364V47.7484C211.026 48.5216 211.2 49.0829 211.55 49.4321C211.924 49.7564 212.547 49.9185 213.42 49.9185H216.04V53.473H212.672C210.751 53.473 209.28 53.024 208.257 52.126C207.234 51.2281 206.723 49.7688 206.723 47.7484V36.3364H204.291V32.8567H206.723V27.7307H211.026V32.8567H216.04V36.3364H211.026ZM228.913 53.8098C226.968 53.8098 225.209 53.3732 223.638 52.5002C222.066 51.6022 220.832 50.355 219.934 48.7586C219.036 47.1372 218.587 45.2664 218.587 43.1462C218.587 41.0509 219.048 39.1925 219.971 37.5712C220.894 35.9498 222.154 34.7026 223.75 33.8295C225.346 32.9565 227.13 32.52 229.1 32.52C231.071 32.52 232.855 32.9565 234.451 33.8295C236.047 34.7026 237.307 35.9498 238.23 37.5712C239.153 39.1925 239.614 41.0509 239.614 43.1462C239.614 45.2415 239.14 47.0998 238.193 48.7212C237.245 50.3425 235.948 51.6022 234.301 52.5002C232.68 53.3732 230.884 53.8098 228.913 53.8098ZM228.913 50.1056C230.011 50.1056 231.034 49.8437 231.982 49.3198C232.954 48.796 233.74 48.0103 234.339 46.9626C234.937 45.915 235.237 44.6428 235.237 43.1462C235.237 41.6495 234.95 40.3898 234.376 39.3671C233.802 38.3195 233.042 37.5337 232.094 37.0099C231.146 36.4861 230.123 36.2242 229.026 36.2242C227.928 36.2242 226.905 36.4861 225.958 37.0099C225.035 37.5337 224.299 38.3195 223.75 39.3671C223.201 40.3898 222.927 41.6495 222.927 43.1462C222.927 45.3662 223.488 47.0873 224.611 48.3096C225.758 49.5069 227.192 50.1056 228.913 50.1056ZM248.096 35.85C248.72 34.8024 249.543 33.9917 250.566 33.418C251.614 32.8193 252.848 32.52 254.27 32.52V36.9351H253.185C251.514 36.9351 250.242 37.3591 249.369 38.2072C248.521 39.0553 248.096 40.527 248.096 42.6223V53.473H243.831V32.8567H248.096V35.85ZM277.086 42.6598C277.086 43.433 277.036 44.1315 276.936 44.7551H261.184C261.309 46.4014 261.92 47.7234 263.018 48.7212C264.115 49.7189 265.462 50.2178 267.059 50.2178C269.353 50.2178 270.975 49.2575 271.923 47.3368H276.525C275.901 49.2325 274.766 50.7915 273.12 52.0138C271.499 53.2111 269.478 53.8098 267.059 53.8098C265.088 53.8098 263.317 53.3732 261.745 52.5002C260.199 51.6022 258.977 50.355 258.079 48.7586C257.206 47.1372 256.769 45.2664 256.769 43.1462C256.769 41.0259 257.193 39.1676 258.041 37.5712C258.914 35.9498 260.124 34.7026 261.671 33.8295C263.242 32.9565 265.038 32.52 267.059 32.52C269.004 32.52 270.738 32.944 272.259 33.7921C273.781 34.6402 274.966 35.8375 275.814 37.3841C276.662 38.9057 277.086 40.6642 277.086 42.6598ZM272.634 41.3128C272.609 39.7413 272.047 38.4816 270.95 37.5337C269.852 36.5859 268.493 36.1119 266.872 36.1119C265.4 36.1119 264.14 36.5859 263.092 37.5337C262.045 38.4567 261.421 39.7164 261.222 41.3128H272.634Z" fill="white"/>
<rect opacity="0.2" width="74.8323" height="74.8323" rx="37.4161" fill="white"/>
<rect x="32.7393" y="31.1801" width="49.8882" height="49.8882" rx="24.9441" fill="white"/>
</svg>
